External Loads File
version=1
nRows=47
nColumns=13
Range=5.000000e-03-10 seconds
endheader
time 	forceRightX 	forceRightY 	forceRightZ 	pointRightX 	pointRightY 	pointRightZ 	forceLeftX 	forceLeftY 	forceLeftZ 	pointLeftX 	pointLeftY 	pointLeftZ 		
0.005000 64.510017 130.745144 -0.000000 0.139637 0.180920 -0.147458 42.516618 106.955727 -0.000000 0.328365 0.476742 -0.380869
0.010000 64.529454 130.379951 -0.000000 0.139673 0.180929 -0.147457 41.760597 106.446373 -0.000000 0.328340 0.476764 -0.380872
0.015000 64.401436 130.067805 -0.000000 0.139715 0.180916 -0.147459 40.874105 105.941282 -0.000000 0.328316 0.476788 -0.380868
0.020000 64.158094 129.816106 -0.000000 0.139742 0.180909 -0.147462 39.874009 105.430390 -0.000000 0.328291 0.476827 -0.380875
0.025000 64.014745 129.535025 -0.000000 0.139776 0.180882 -0.147482 38.914315 104.835890 -0.000000 0.328247 0.476880 -0.380927
0.030000 63.965777 129.223337 -0.000000 0.139818 0.180934 -0.147481 38.009483 104.174201 -0.000000 0.328242 0.476947 -0.380872
0.035000 63.936854 128.891965 -0.000000 0.139850 0.180908 -0.147474 37.165993 103.510938 -0.000000 0.328216 0.477028 -0.380874
0.040000 63.798884 128.576221 -0.000000 0.139871 0.180897 -0.147472 36.372503 102.945992 -0.000000 0.328204 0.477123 -0.380863
0.045000 63.629746 128.227052 -0.000000 0.139875 0.180892 -0.147474 35.766692 102.516320 -0.000000 0.328193 0.477232 -0.380869
0.050000 63.572277 127.785860 -0.000000 0.139897 0.180890 -0.147473 35.495547 102.221341 -0.000000 0.328194 0.477353 -0.380858
0.055000 63.257762 127.466963 -0.000000 0.139906 0.180888 -0.147470 35.254874 102.186289 -0.000000 0.328191 0.477487 -0.380859
0.060000 63.228054 127.051384 -0.000000 0.139906 0.180865 -0.147469 35.420723 102.263159 -0.000000 0.328183 0.477634 -0.380853
0.065000 63.383708 126.645545 -0.000000 0.139903 0.180857 -0.147471 35.831950 102.451640 -0.000000 0.328171 0.477793 -0.380847
0.070000 63.394763 126.447047 -0.000000 0.139908 0.180836 -0.147483 36.152641 102.793026 -0.000000 0.328159 0.477964 -0.380854
0.075000 63.720685 126.213083 -0.000000 0.139909 0.180839 -0.147477 36.703743 103.089129 -0.000000 0.328150 0.478147 -0.380855
0.080000 63.988047 126.092165 -0.000000 0.139913 0.180819 -0.147473 37.129066 103.376803 -0.000000 0.328126 0.478341 -0.380848
0.085000 64.226841 126.044753 -0.000000 0.139897 0.180795 -0.147477 37.385925 103.584607 -0.000000 0.328103 0.478546 -0.380842
0.090000 64.290389 126.150750 -0.000000 0.139902 0.180795 -0.147481 37.302238 103.717532 -0.000000 0.328092 0.478763 -0.380840
0.095000 64.564196 126.223859 -0.000000 0.139898 0.180780 -0.147461 37.200053 103.663448 -0.000000 0.328060 0.478990 -0.380841
0.100000 65.083379 126.233803 -0.000000 0.139896 0.180771 -0.147465 37.166387 103.445867 -0.000000 0.328050 0.479227 -0.380847
0.105000 65.147277 126.510315 -0.000000 0.139900 0.180770 -0.147468 36.715499 103.318894 -0.000000 0.328022 0.479474 -0.380845
0.110000 65.359299 126.704332 -0.000000 0.139894 0.180757 -0.147470 36.425413 103.145146 -0.000000 0.328036 0.479732 -0.380884
0.115000 65.496906 126.886770 -0.000000 0.139893 0.180746 -0.147453 36.173730 103.005230 -0.000000 0.327974 0.479999 -0.380836
0.120000 65.490275 127.054097 -0.000000 0.139903 0.180730 -0.147467 35.949115 102.923361 -0.000000 0.327953 0.480275 -0.380848
0.125000 65.296995 127.215475 -0.000000 0.139905 0.180715 -0.147459 35.739276 102.917572 -0.000000 0.327931 0.480560 -0.380848
0.130000 65.349122 127.178048 -0.000000 0.139921 0.180710 -0.147475 35.890684 102.884673 -0.000000 0.327899 0.480854 -0.380847
0.135000 65.412116 127.113775 -0.000000 0.139930 0.180683 -0.147470 36.200182 102.918183 -0.000000 0.327874 0.481157 -0.380842
0.140000 65.285676 127.164928 -0.000000 0.139947 0.180686 -0.147475 36.477205 103.086699 -0.000000 0.327860 0.481467 -0.380842
0.145000 65.322917 127.163589 -0.000000 0.139972 0.180666 -0.147465 36.969191 103.275171 -0.000000 0.327826 0.481786 -0.380846
0.150000 65.356148 127.184361 -0.000000 0.139985 0.180657 -0.147470 37.498483 103.490953 -0.000000 0.327798 0.482112 -0.380843
0.155000 65.486043 127.140645 -0.000000 0.140012 0.180636 -0.147477 38.099983 103.642285 -0.000000 0.327778 0.482446 -0.380842
0.160000 65.518518 127.088215 -0.000000 0.140032 0.180628 -0.147490 38.576800 103.737476 -0.000000 0.327736 0.482787 -0.380849
0.165000 65.428123 127.012446 -0.000000 0.140076 0.180599 -0.147483 38.878407 103.771116 -0.000000 0.327701 0.483134 -0.380852
0.170000 65.363390 126.837457 -0.000000 0.140095 0.180578 -0.147482 39.099922 103.712445 -0.000000 0.327660 0.483489 -0.380854
0.175000 65.194284 126.647466 -0.000000 0.140119 0.180562 -0.147486 39.111846 103.617370 -0.000000 0.327619 0.483849 -0.380855
0.180000 65.086058 126.378566 -0.000000 0.140159 0.180546 -0.147486 39.010268 103.420077 -0.000000 0.327589 0.484216 -0.380861
0.185000 64.717730 126.210456 -0.000000 0.140185 0.180541 -0.147492 38.490014 103.183785 -0.000000 0.327571 0.484588 -0.380865
0.190000 64.435432 125.959320 -0.000000 0.140222 0.180515 -0.147486 37.835075 102.782636 -0.000000 0.327550 0.484966 -0.380858
0.195000 64.232383 125.612836 -0.000000 0.140257 0.180490 -0.147491 37.103139 102.241454 -0.000000 0.327529 0.485349 -0.380851
0.200000 63.957106 125.249825 -0.000000 0.140284 0.180463 -0.147492 36.283155 101.678195 -0.000000 0.327515 0.485737 -0.380869
0.205000 63.807409 124.794742 -0.000000 0.140315 0.180457 -0.147500 35.643064 101.130553 -0.000000 0.327498 0.486130 -0.380859
0.210000 63.371855 124.489339 -0.000000 0.140342 0.180431 -0.147500 34.907450 100.785712 -0.000000 0.327478 0.486527 -0.380859
0.215000 63.060481 124.151286 -0.000000 0.140382 0.180403 -0.147504 34.423313 100.555329 -0.000000 0.327497 0.486929 -0.380925
0.220000 62.901257 123.793946 -0.000000 0.140408 0.180401 -0.147512 34.192541 100.424454 -0.000000 0.327504 0.487334 -0.380920
0.225000 63.008721 123.382861 -0.000000 0.140452 0.180382 -0.147508 34.280185 100.336105 -0.000000 0.327500 0.487743 -0.380911
0.230000 62.815875 123.214201 -0.000000 0.140472 0.180377 -0.147505 34.225906 100.424701 -0.000000 0.327460 0.488155 -0.380856
0.235000 62.776242 123.041324 -0.000000 0.140508 0.180374 -0.147517 34.414485 100.544190 -0.000000 0.327456 0.488570 -0.380858
